ISO-10303-21;
HEADER;
/* Generated by software containing ST-Developer
 * from STEP Tools, Inc. (www.steptools.com) 
 */

FILE_DESCRIPTION(
/* description */ (''),
/* implementation_level */ '2;1');

FILE_NAME(
/* name */ 'BarLink.step',
/* time_stamp */ '2026-02-07T23:22:14+05:30',
/* author */ (''),
/* organization */ (''),
/* preprocessor_version */ 'ST-DEVELOPER v20.1',
/* originating_system */ 'Autodesk Translation Framework v14.24.0.0',
/* authorisation */ '');

FILE_SCHEMA (('AUTOMOTIVE_DESIGN { 1 0 10303 214 3 1 1 }'));
ENDSEC;

DATA;
#10=MECHANICAL_DESIGN_GEOMETRIC_PRESENTATION_REPRESENTATION('',(#13,#14),
#414);
#11=SHAPE_REPRESENTATION_RELATIONSHIP('SRR','None',#421,#12);
#12=ADVANCED_BREP_SHAPE_REPRESENTATION('',(#15,#16),#413);
#13=STYLED_ITEM('',(#431),#15);
#14=STYLED_ITEM('',(#432),#16);
#15=MANIFOLD_SOLID_BREP('B-BarLink',#245);
#16=MANIFOLD_SOLID_BREP('B-Extension',#246);
#17=CYLINDRICAL_SURFACE('',#263,37.5);
#18=CYLINDRICAL_SURFACE('',#267,100.);
#19=CYLINDRICAL_SURFACE('',#271,12.5);
#20=FACE_BOUND('',#39,.T.);
#21=FACE_BOUND('',#46,.T.);
#22=FACE_BOUND('',#50,.T.);
#23=FACE_BOUND('',#53,.T.);
#24=FACE_OUTER_BOUND('',#38,.T.);
#25=FACE_OUTER_BOUND('',#40,.T.);
#26=FACE_OUTER_BOUND('',#41,.T.);
#27=FACE_OUTER_BOUND('',#42,.T.);
#28=FACE_OUTER_BOUND('',#43,.T.);
#29=FACE_OUTER_BOUND('',#44,.T.);
#30=FACE_OUTER_BOUND('',#45,.T.);
#31=FACE_OUTER_BOUND('',#47,.T.);
#32=FACE_OUTER_BOUND('',#48,.T.);
#33=FACE_OUTER_BOUND('',#49,.T.);
#34=FACE_OUTER_BOUND('',#51,.T.);
#35=FACE_OUTER_BOUND('',#52,.T.);
#36=FACE_OUTER_BOUND('',#54,.T.);
#37=FACE_OUTER_BOUND('',#55,.T.);
#38=EDGE_LOOP('',(#160,#161,#162,#163));
#39=EDGE_LOOP('',(#164));
#40=EDGE_LOOP('',(#165,#166,#167,#168));
#41=EDGE_LOOP('',(#169,#170,#171,#172));
#42=EDGE_LOOP('',(#173,#174,#175,#176));
#43=EDGE_LOOP('',(#177,#178,#179,#180));
#44=EDGE_LOOP('',(#181,#182,#183,#184));
#45=EDGE_LOOP('',(#185,#186,#187,#188));
#46=EDGE_LOOP('',(#189));
#47=EDGE_LOOP('',(#190,#191,#192,#193));
#48=EDGE_LOOP('',(#194,#195,#196,#197));
#49=EDGE_LOOP('',(#198,#199,#200,#201));
#50=EDGE_LOOP('',(#202));
#51=EDGE_LOOP('',(#203,#204,#205,#206));
#52=EDGE_LOOP('',(#207,#208,#209,#210));
#53=EDGE_LOOP('',(#211));
#54=EDGE_LOOP('',(#212,#213,#214,#215));
#55=EDGE_LOOP('',(#216,#217,#218,#219));
#56=CIRCLE('',#261,100.);
#57=CIRCLE('',#262,37.5);
#58=CIRCLE('',#264,37.5);
#59=CIRCLE('',#268,100.);
#60=CIRCLE('',#272,12.5);
#61=CIRCLE('',#273,12.5);
#62=LINE('',#350,#86);
#63=LINE('',#352,#87);
#64=LINE('',#354,#88);
#65=LINE('',#361,#89);
#66=LINE('',#364,#90);
#67=LINE('',#366,#91);
#68=LINE('',#367,#92);
#69=LINE('',#370,#93);
#70=LINE('',#371,#94);
#71=LINE('',#375,#95);
#72=LINE('',#377,#96);
#73=LINE('',#383,#97);
#74=LINE('',#388,#98);
#75=LINE('',#390,#99);
#76=LINE('',#392,#100);
#77=LINE('',#393,#101);
#78=LINE('',#396,#102);
#79=LINE('',#398,#103);
#80=LINE('',#399,#104);
#81=LINE('',#402,#105);
#82=LINE('',#404,#106);
#83=LINE('',#405,#107);
#84=LINE('',#407,#108);
#85=LINE('',#408,#109);
#86=VECTOR('',#284,50.);
#87=VECTOR('',#285,50.);
#88=VECTOR('',#286,50.);
#89=VECTOR('',#295,37.5);
#90=VECTOR('',#298,50.);
#91=VECTOR('',#299,50.);
#92=VECTOR('',#300,50.);
#93=VECTOR('',#303,50.);
#94=VECTOR('',#304,50.);
#95=VECTOR('',#309,50.);
#96=VECTOR('',#312,50.);
#97=VECTOR('',#319,12.5);
#98=VECTOR('',#324,50.);
#99=VECTOR('',#325,50.);
#100=VECTOR('',#326,50.);
#101=VECTOR('',#327,50.);
#102=VECTOR('',#330,50.);
#103=VECTOR('',#331,50.);
#104=VECTOR('',#332,50.);
#105=VECTOR('',#335,50.);
#106=VECTOR('',#336,50.);
#107=VECTOR('',#337,50.);
#108=VECTOR('',#340,50.);
#109=VECTOR('',#341,50.);
#110=VERTEX_POINT('',#348);
#111=VERTEX_POINT('',#349);
#112=VERTEX_POINT('',#351);
#113=VERTEX_POINT('',#353);
#114=VERTEX_POINT('',#356);
#115=VERTEX_POINT('',#359);
#116=VERTEX_POINT('',#363);
#117=VERTEX_POINT('',#365);
#118=VERTEX_POINT('',#369);
#119=VERTEX_POINT('',#373);
#120=VERTEX_POINT('',#380);
#121=VERTEX_POINT('',#382);
#122=VERTEX_POINT('',#386);
#123=VERTEX_POINT('',#387);
#124=VERTEX_POINT('',#389);
#125=VERTEX_POINT('',#391);
#126=VERTEX_POINT('',#395);
#127=VERTEX_POINT('',#397);
#128=VERTEX_POINT('',#401);
#129=VERTEX_POINT('',#403);
#130=EDGE_CURVE('',#110,#111,#62,.T.);
#131=EDGE_CURVE('',#111,#112,#63,.T.);
#132=EDGE_CURVE('',#112,#113,#64,.T.);
#133=EDGE_CURVE('',#113,#110,#56,.T.);
#134=EDGE_CURVE('',#114,#114,#57,.T.);
#135=EDGE_CURVE('',#115,#115,#58,.T.);
#136=EDGE_CURVE('',#115,#114,#65,.T.);
#137=EDGE_CURVE('',#116,#111,#66,.T.);
#138=EDGE_CURVE('',#117,#116,#67,.T.);
#139=EDGE_CURVE('',#112,#117,#68,.T.);
#140=EDGE_CURVE('',#118,#117,#69,.T.);
#141=EDGE_CURVE('',#113,#118,#70,.T.);
#142=EDGE_CURVE('',#119,#118,#59,.T.);
#143=EDGE_CURVE('',#110,#119,#71,.T.);
#144=EDGE_CURVE('',#116,#119,#72,.T.);
#145=EDGE_CURVE('',#120,#120,#60,.T.);
#146=EDGE_CURVE('',#120,#121,#73,.T.);
#147=EDGE_CURVE('',#121,#121,#61,.T.);
#148=EDGE_CURVE('',#122,#123,#74,.T.);
#149=EDGE_CURVE('',#123,#124,#75,.T.);
#150=EDGE_CURVE('',#125,#124,#76,.T.);
#151=EDGE_CURVE('',#122,#125,#77,.T.);
#152=EDGE_CURVE('',#122,#126,#78,.T.);
#153=EDGE_CURVE('',#127,#125,#79,.T.);
#154=EDGE_CURVE('',#126,#127,#80,.T.);
#155=EDGE_CURVE('',#128,#126,#81,.T.);
#156=EDGE_CURVE('',#129,#127,#82,.T.);
#157=EDGE_CURVE('',#128,#129,#83,.T.);
#158=EDGE_CURVE('',#123,#128,#84,.T.);
#159=EDGE_CURVE('',#124,#129,#85,.T.);
#160=ORIENTED_EDGE('',*,*,#130,.T.);
#161=ORIENTED_EDGE('',*,*,#131,.T.);
#162=ORIENTED_EDGE('',*,*,#132,.T.);
#163=ORIENTED_EDGE('',*,*,#133,.T.);
#164=ORIENTED_EDGE('',*,*,#134,.T.);
#165=ORIENTED_EDGE('',*,*,#135,.F.);
#166=ORIENTED_EDGE('',*,*,#136,.T.);
#167=ORIENTED_EDGE('',*,*,#134,.F.);
#168=ORIENTED_EDGE('',*,*,#136,.F.);
#169=ORIENTED_EDGE('',*,*,#137,.F.);
#170=ORIENTED_EDGE('',*,*,#138,.F.);
#171=ORIENTED_EDGE('',*,*,#139,.F.);
#172=ORIENTED_EDGE('',*,*,#131,.F.);
#173=ORIENTED_EDGE('',*,*,#139,.T.);
#174=ORIENTED_EDGE('',*,*,#140,.F.);
#175=ORIENTED_EDGE('',*,*,#141,.F.);
#176=ORIENTED_EDGE('',*,*,#132,.F.);
#177=ORIENTED_EDGE('',*,*,#141,.T.);
#178=ORIENTED_EDGE('',*,*,#142,.F.);
#179=ORIENTED_EDGE('',*,*,#143,.F.);
#180=ORIENTED_EDGE('',*,*,#133,.F.);
#181=ORIENTED_EDGE('',*,*,#143,.T.);
#182=ORIENTED_EDGE('',*,*,#144,.F.);
#183=ORIENTED_EDGE('',*,*,#137,.T.);
#184=ORIENTED_EDGE('',*,*,#130,.F.);
#185=ORIENTED_EDGE('',*,*,#144,.T.);
#186=ORIENTED_EDGE('',*,*,#142,.T.);
#187=ORIENTED_EDGE('',*,*,#140,.T.);
#188=ORIENTED_EDGE('',*,*,#138,.T.);
#189=ORIENTED_EDGE('',*,*,#135,.T.);
#190=ORIENTED_EDGE('',*,*,#145,.F.);
#191=ORIENTED_EDGE('',*,*,#146,.T.);
#192=ORIENTED_EDGE('',*,*,#147,.F.);
#193=ORIENTED_EDGE('',*,*,#146,.F.);
#194=ORIENTED_EDGE('',*,*,#148,.T.);
#195=ORIENTED_EDGE('',*,*,#149,.T.);
#196=ORIENTED_EDGE('',*,*,#150,.F.);
#197=ORIENTED_EDGE('',*,*,#151,.F.);
#198=ORIENTED_EDGE('',*,*,#152,.F.);
#199=ORIENTED_EDGE('',*,*,#151,.T.);
#200=ORIENTED_EDGE('',*,*,#153,.F.);
#201=ORIENTED_EDGE('',*,*,#154,.F.);
#202=ORIENTED_EDGE('',*,*,#145,.T.);
#203=ORIENTED_EDGE('',*,*,#155,.T.);
#204=ORIENTED_EDGE('',*,*,#154,.T.);
#205=ORIENTED_EDGE('',*,*,#156,.F.);
#206=ORIENTED_EDGE('',*,*,#157,.F.);
#207=ORIENTED_EDGE('',*,*,#158,.T.);
#208=ORIENTED_EDGE('',*,*,#157,.T.);
#209=ORIENTED_EDGE('',*,*,#159,.F.);
#210=ORIENTED_EDGE('',*,*,#149,.F.);
#211=ORIENTED_EDGE('',*,*,#147,.T.);
#212=ORIENTED_EDGE('',*,*,#159,.T.);
#213=ORIENTED_EDGE('',*,*,#156,.T.);
#214=ORIENTED_EDGE('',*,*,#153,.T.);
#215=ORIENTED_EDGE('',*,*,#150,.T.);
#216=ORIENTED_EDGE('',*,*,#158,.F.);
#217=ORIENTED_EDGE('',*,*,#148,.F.);
#218=ORIENTED_EDGE('',*,*,#152,.T.);
#219=ORIENTED_EDGE('',*,*,#155,.F.);
#220=PLANE('',#260);
#221=PLANE('',#265);
#222=PLANE('',#266);
#223=PLANE('',#269);
#224=PLANE('',#270);
#225=PLANE('',#274);
#226=PLANE('',#275);
#227=PLANE('',#276);
#228=PLANE('',#277);
#229=PLANE('',#278);
#230=PLANE('',#279);
#231=ADVANCED_FACE('',(#24,#20),#220,.F.);
#232=ADVANCED_FACE('',(#25),#17,.F.);
#233=ADVANCED_FACE('',(#26),#221,.T.);
#234=ADVANCED_FACE('',(#27),#222,.T.);
#235=ADVANCED_FACE('',(#28),#18,.T.);
#236=ADVANCED_FACE('',(#29),#223,.T.);
#237=ADVANCED_FACE('',(#30,#21),#224,.T.);
#238=ADVANCED_FACE('',(#31),#19,.F.);
#239=ADVANCED_FACE('',(#32),#225,.T.);
#240=ADVANCED_FACE('',(#33,#22),#226,.T.);
#241=ADVANCED_FACE('',(#34),#227,.T.);
#242=ADVANCED_FACE('',(#35,#23),#228,.T.);
#243=ADVANCED_FACE('',(#36),#229,.T.);
#244=ADVANCED_FACE('',(#37),#230,.F.);
#245=CLOSED_SHELL('',(#231,#232,#233,#234,#235,#236,#237));
#246=CLOSED_SHELL('',(#238,#239,#240,#241,#242,#243,#244));
#247=DERIVED_UNIT_ELEMENT(#249,1.);
#248=DERIVED_UNIT_ELEMENT(#416,-3.);
#249=(
MASS_UNIT()
NAMED_UNIT(*)
SI_UNIT(.KILO.,.GRAM.)
);
#250=DERIVED_UNIT((#247,#248));
#251=MEASURE_REPRESENTATION_ITEM('density measure',
POSITIVE_RATIO_MEASURE(7850.),#250);
#252=PROPERTY_DEFINITION_REPRESENTATION(#257,#254);
#253=PROPERTY_DEFINITION_REPRESENTATION(#258,#255);
#254=REPRESENTATION('material name',(#256),#413);
#255=REPRESENTATION('density',(#251),#413);
#256=DESCRIPTIVE_REPRESENTATION_ITEM('Steel','Steel');
#257=PROPERTY_DEFINITION('material property','material name',#423);
#258=PROPERTY_DEFINITION('material property','density of part',#423);
#259=AXIS2_PLACEMENT_3D('',#346,#280,#281);
#260=AXIS2_PLACEMENT_3D('',#347,#282,#283);
#261=AXIS2_PLACEMENT_3D('',#355,#287,#288);
#262=AXIS2_PLACEMENT_3D('',#357,#289,#290);
#263=AXIS2_PLACEMENT_3D('',#358,#291,#292);
#264=AXIS2_PLACEMENT_3D('',#360,#293,#294);
#265=AXIS2_PLACEMENT_3D('',#362,#296,#297);
#266=AXIS2_PLACEMENT_3D('',#368,#301,#302);
#267=AXIS2_PLACEMENT_3D('',#372,#305,#306);
#268=AXIS2_PLACEMENT_3D('',#374,#307,#308);
#269=AXIS2_PLACEMENT_3D('',#376,#310,#311);
#270=AXIS2_PLACEMENT_3D('',#378,#313,#314);
#271=AXIS2_PLACEMENT_3D('',#379,#315,#316);
#272=AXIS2_PLACEMENT_3D('',#381,#317,#318);
#273=AXIS2_PLACEMENT_3D('',#384,#320,#321);
#274=AXIS2_PLACEMENT_3D('',#385,#322,#323);
#275=AXIS2_PLACEMENT_3D('',#394,#328,#329);
#276=AXIS2_PLACEMENT_3D('',#400,#333,#334);
#277=AXIS2_PLACEMENT_3D('',#406,#338,#339);
#278=AXIS2_PLACEMENT_3D('',#409,#342,#343);
#279=AXIS2_PLACEMENT_3D('',#410,#344,#345);
#280=DIRECTION('axis',(0.,0.,1.));
#281=DIRECTION('refdir',(1.,0.,0.));
#282=DIRECTION('center_axis',(1.,0.,0.));
#283=DIRECTION('ref_axis',(0.,1.,0.));
#284=DIRECTION('',(0.,5.55111512312578E-17,-1.));
#285=DIRECTION('',(0.,-1.,-5.55111512312578E-17));
#286=DIRECTION('',(0.,-2.22044604925031E-16,1.));
#287=DIRECTION('center_axis',(-1.,0.,0.));
#288=DIRECTION('ref_axis',(0.,1.,0.));
#289=DIRECTION('center_axis',(1.,0.,0.));
#290=DIRECTION('ref_axis',(0.,1.,0.));
#291=DIRECTION('center_axis',(1.,0.,0.));
#292=DIRECTION('ref_axis',(0.,1.,0.));
#293=DIRECTION('center_axis',(-1.,0.,0.));
#294=DIRECTION('ref_axis',(0.,1.,0.));
#295=DIRECTION('',(-1.,0.,0.));
#296=DIRECTION('center_axis',(0.,5.55111512312579E-17,-1.));
#297=DIRECTION('ref_axis',(0.,1.,5.55111512312578E-17));
#298=DIRECTION('',(-1.,0.,0.));
#299=DIRECTION('',(0.,1.,5.55111512312578E-17));
#300=DIRECTION('',(1.,0.,0.));
#301=DIRECTION('center_axis',(0.,-1.,-2.22044604925031E-16));
#302=DIRECTION('ref_axis',(0.,2.22044604925031E-16,-1.));
#303=DIRECTION('',(0.,2.22044604925031E-16,-1.));
#304=DIRECTION('',(1.,0.,0.));
#305=DIRECTION('center_axis',(1.,0.,0.));
#306=DIRECTION('ref_axis',(0.,1.,0.));
#307=DIRECTION('center_axis',(1.,0.,0.));
#308=DIRECTION('ref_axis',(0.,1.,0.));
#309=DIRECTION('',(1.,0.,0.));
#310=DIRECTION('center_axis',(0.,1.,5.55111512312578E-17));
#311=DIRECTION('ref_axis',(0.,-5.55111512312578E-17,1.));
#312=DIRECTION('',(0.,-5.55111512312578E-17,1.));
#313=DIRECTION('center_axis',(1.,0.,0.));
#314=DIRECTION('ref_axis',(0.,1.,0.));
#315=DIRECTION('center_axis',(0.,0.,-1.));
#316=DIRECTION('ref_axis',(-1.,0.,0.));
#317=DIRECTION('center_axis',(0.,2.22044604925031E-16,-1.));
#318=DIRECTION('ref_axis',(-1.,0.,0.));
#319=DIRECTION('',(0.,0.,-1.));
#320=DIRECTION('center_axis',(0.,-1.66533453693774E-16,1.));
#321=DIRECTION('ref_axis',(-1.,0.,0.));
#322=DIRECTION('center_axis',(0.,1.,1.11022302462516E-16));
#323=DIRECTION('ref_axis',(0.,1.11022302462516E-16,-1.));
#324=DIRECTION('',(0.,1.11022302462516E-16,-1.));
#325=DIRECTION('',(-1.,0.,0.));
#326=DIRECTION('',(0.,1.11022302462516E-16,-1.));
#327=DIRECTION('',(-1.,0.,0.));
#328=DIRECTION('center_axis',(0.,-2.22044604925031E-16,1.));
#329=DIRECTION('ref_axis',(0.,1.,2.22044604925031E-16));
#330=DIRECTION('',(0.,-1.,-2.22044604925031E-16));
#331=DIRECTION('',(0.,1.,2.22044604925031E-16));
#332=DIRECTION('',(-1.,0.,0.));
#333=DIRECTION('center_axis',(0.,-1.,-2.77555756156289E-16));
#334=DIRECTION('ref_axis',(0.,-2.77555756156289E-16,1.));
#335=DIRECTION('',(0.,-2.77555756156289E-16,1.));
#336=DIRECTION('',(0.,-2.77555756156289E-16,1.));
#337=DIRECTION('',(-1.,0.,0.));
#338=DIRECTION('center_axis',(0.,1.66533453693774E-16,-1.));
#339=DIRECTION('ref_axis',(0.,-1.,-1.66533453693774E-16));
#340=DIRECTION('',(0.,-1.,-1.66533453693774E-16));
#341=DIRECTION('',(0.,-1.,-1.66533453693774E-16));
#342=DIRECTION('center_axis',(-1.,0.,0.));
#343=DIRECTION('ref_axis',(0.,0.,1.));
#344=DIRECTION('center_axis',(-1.,0.,0.));
#345=DIRECTION('ref_axis',(0.,-1.,0.));
#346=CARTESIAN_POINT('',(0.,0.,0.));
#347=CARTESIAN_POINT('Origin',(-5.,30.,-30.));
#348=CARTESIAN_POINT('',(-5.,130.,20.));
#349=CARTESIAN_POINT('',(-5.,130.,-180.));
#350=CARTESIAN_POINT('',(-5.,130.,20.));
#351=CARTESIAN_POINT('',(-5.,-69.9999999999999,-180.));
#352=CARTESIAN_POINT('',(-5.,130.,-180.));
#353=CARTESIAN_POINT('',(-5.,-70.,20.));
#354=CARTESIAN_POINT('',(-5.,-69.9999999999999,-180.));
#355=CARTESIAN_POINT('Origin',(-5.,30.,20.));
#356=CARTESIAN_POINT('',(-5.,-7.5,20.));
#357=CARTESIAN_POINT('Origin',(-5.,30.,20.));
#358=CARTESIAN_POINT('Origin',(20.,30.,20.));
#359=CARTESIAN_POINT('',(45.,-7.5,20.));
#360=CARTESIAN_POINT('Origin',(45.,30.,20.));
#361=CARTESIAN_POINT('',(20.,-7.5,20.));
#362=CARTESIAN_POINT('Origin',(20.,-69.9999999999999,-180.));
#363=CARTESIAN_POINT('',(45.,130.,-180.));
#364=CARTESIAN_POINT('',(20.,130.,-180.));
#365=CARTESIAN_POINT('',(45.,-69.9999999999999,-180.));
#366=CARTESIAN_POINT('',(45.,130.,-180.));
#367=CARTESIAN_POINT('',(20.,-69.9999999999999,-180.));
#368=CARTESIAN_POINT('Origin',(20.,-70.,20.));
#369=CARTESIAN_POINT('',(45.,-70.,20.));
#370=CARTESIAN_POINT('',(45.,-69.9999999999999,-180.));
#371=CARTESIAN_POINT('',(20.,-70.,20.));
#372=CARTESIAN_POINT('Origin',(20.,30.,20.));
#373=CARTESIAN_POINT('',(45.,130.,20.));
#374=CARTESIAN_POINT('Origin',(45.,30.,20.));
#375=CARTESIAN_POINT('',(20.,130.,20.));
#376=CARTESIAN_POINT('Origin',(20.,130.,-180.));
#377=CARTESIAN_POINT('',(45.,130.,20.));
#378=CARTESIAN_POINT('Origin',(45.,30.,-30.));
#379=CARTESIAN_POINT('Origin',(-415.,30.,-155.));
#380=CARTESIAN_POINT('',(-402.5,30.,-155.));
#381=CARTESIAN_POINT('Origin',(-415.,30.,-155.));
#382=CARTESIAN_POINT('',(-402.5,30.,-180.));
#383=CARTESIAN_POINT('',(-402.5,30.,-155.));
#384=CARTESIAN_POINT('Origin',(-415.,30.,-180.));
#385=CARTESIAN_POINT('Origin',(-5.,130.,-155.));
#386=CARTESIAN_POINT('',(-5.,130.,-155.));
#387=CARTESIAN_POINT('',(-5.,130.,-180.));
#388=CARTESIAN_POINT('',(-5.,130.,20.));
#389=CARTESIAN_POINT('',(-505.,130.,-180.));
#390=CARTESIAN_POINT('',(-5.,130.,-180.));
#391=CARTESIAN_POINT('',(-505.,130.,-155.));
#392=CARTESIAN_POINT('',(-505.,130.,20.));
#393=CARTESIAN_POINT('',(-5.,130.,-155.));
#394=CARTESIAN_POINT('Origin',(-5.,-69.9999999999999,-155.));
#395=CARTESIAN_POINT('',(-5.,-69.9999999999999,-155.));
#396=CARTESIAN_POINT('',(-5.,130.,-155.));
#397=CARTESIAN_POINT('',(-505.,-70.,-155.));
#398=CARTESIAN_POINT('',(-505.,130.,-155.));
#399=CARTESIAN_POINT('',(-5.,-69.9999999999999,-155.));
#400=CARTESIAN_POINT('Origin',(-5.,-69.9999999999999,-180.));
#401=CARTESIAN_POINT('',(-5.,-69.9999999999999,-180.));
#402=CARTESIAN_POINT('',(-5.,-69.9999999999999,-180.));
#403=CARTESIAN_POINT('',(-505.,-69.9999999999999,-180.));
#404=CARTESIAN_POINT('',(-505.,-69.9999999999999,-180.));
#405=CARTESIAN_POINT('',(-5.,-69.9999999999999,-180.));
#406=CARTESIAN_POINT('Origin',(-5.,130.,-180.));
#407=CARTESIAN_POINT('',(-5.,130.,-180.));
#408=CARTESIAN_POINT('',(-505.,130.,-180.));
#409=CARTESIAN_POINT('Origin',(-505.,30.,-167.5));
#410=CARTESIAN_POINT('Origin',(-5.,30.,-167.5));
#411=UNCERTAINTY_MEASURE_WITH_UNIT(LENGTH_MEASURE(0.01),#415,
'DISTANCE_ACCURACY_VALUE',
'Maximum model space distance between geometric entities at asserted c
onnectivities');
#412=UNCERTAINTY_MEASURE_WITH_UNIT(LENGTH_MEASURE(0.01),#415,
'DISTANCE_ACCURACY_VALUE',
'Maximum model space distance between geometric entities at asserted c
onnectivities');
#413=(
GEOMETRIC_REPRESENTATION_CONTEXT(3)
GLOBAL_UNCERTAINTY_ASSIGNED_CONTEXT((#411))
GLOBAL_UNIT_ASSIGNED_CONTEXT((#415,#417,#418))
REPRESENTATION_CONTEXT('','3D')
);
#414=(
GEOMETRIC_REPRESENTATION_CONTEXT(3)
GLOBAL_UNCERTAINTY_ASSIGNED_CONTEXT((#412))
GLOBAL_UNIT_ASSIGNED_CONTEXT((#415,#417,#418))
REPRESENTATION_CONTEXT('','3D')
);
#415=(
LENGTH_UNIT()
NAMED_UNIT(*)
SI_UNIT(.MILLI.,.METRE.)
);
#416=(
LENGTH_UNIT()
NAMED_UNIT(*)
SI_UNIT($,.METRE.)
);
#417=(
NAMED_UNIT(*)
PLANE_ANGLE_UNIT()
SI_UNIT($,.RADIAN.)
);
#418=(
NAMED_UNIT(*)
SI_UNIT($,.STERADIAN.)
SOLID_ANGLE_UNIT()
);
#419=SHAPE_DEFINITION_REPRESENTATION(#420,#421);
#420=PRODUCT_DEFINITION_SHAPE('',$,#423);
#421=SHAPE_REPRESENTATION('',(#259),#413);
#422=PRODUCT_DEFINITION_CONTEXT('part definition',#427,'design');
#423=PRODUCT_DEFINITION('BarLink','BarLink v2',#424,#422);
#424=PRODUCT_DEFINITION_FORMATION('',$,#429);
#425=PRODUCT_RELATED_PRODUCT_CATEGORY('BarLink v2','BarLink v2',(#429));
#426=APPLICATION_PROTOCOL_DEFINITION('international standard',
'automotive_design',2009,#427);
#427=APPLICATION_CONTEXT(
'Core Data for Automotive Mechanical Design Process');
#428=PRODUCT_CONTEXT('part definition',#427,'mechanical');
#429=PRODUCT('BarLink','BarLink v2',$,(#428));
#430=PRESENTATION_STYLE_ASSIGNMENT((#433));
#431=PRESENTATION_STYLE_ASSIGNMENT((#434));
#432=PRESENTATION_STYLE_ASSIGNMENT((#435));
#433=SURFACE_STYLE_USAGE(.BOTH.,#436);
#434=SURFACE_STYLE_USAGE(.BOTH.,#437);
#435=SURFACE_STYLE_USAGE(.BOTH.,#438);
#436=SURFACE_SIDE_STYLE('',(#439));
#437=SURFACE_SIDE_STYLE('',(#440));
#438=SURFACE_SIDE_STYLE('',(#441));
#439=SURFACE_STYLE_FILL_AREA(#442);
#440=SURFACE_STYLE_FILL_AREA(#443);
#441=SURFACE_STYLE_FILL_AREA(#444);
#442=FILL_AREA_STYLE('Steel - Satin',(#445));
#443=FILL_AREA_STYLE('Chrome',(#446));
#444=FILL_AREA_STYLE('Chrome - Black',(#447));
#445=FILL_AREA_STYLE_COLOUR('Steel - Satin',#448);
#446=FILL_AREA_STYLE_COLOUR('Chrome',#449);
#447=FILL_AREA_STYLE_COLOUR('Chrome - Black',#450);
#448=COLOUR_RGB('Steel - Satin',0.627450980392157,0.627450980392157,0.627450980392157);
#449=COLOUR_RGB('Chrome',0.768627450980392,0.772549019607843,0.768627450980392);
#450=COLOUR_RGB('Chrome - Black',0.564705882352941,0.556862745098039,0.545098039215686);
ENDSEC;
END-ISO-10303-21;
