ISO-10303-21;
HEADER;
/* Generated by software containing ST-Developer
 * from STEP Tools, Inc. (www.steptools.com) 
 */

FILE_DESCRIPTION(
/* description */ (''),
/* implementation_level */ '2;1');

FILE_NAME(
/* name */ 'PendulumRod.step',
/* time_stamp */ '2026-02-07T23:22:29+05:30',
/* author */ (''),
/* organization */ (''),
/* preprocessor_version */ 'ST-DEVELOPER v20.1',
/* originating_system */ 'Autodesk Translation Framework v14.24.0.0',
/* authorisation */ '');

FILE_SCHEMA (('AUTOMOTIVE_DESIGN { 1 0 10303 214 3 1 1 }'));
ENDSEC;

DATA;
#10=MECHANICAL_DESIGN_GEOMETRIC_PRESENTATION_REPRESENTATION('',(#13,#14),
#278);
#11=SHAPE_REPRESENTATION_RELATIONSHIP('SRR','None',#285,#12);
#12=ADVANCED_BREP_SHAPE_REPRESENTATION('',(#15,#16),#277);
#13=STYLED_ITEM('',(#295),#15);
#14=STYLED_ITEM('',(#296),#16);
#15=MANIFOLD_SOLID_BREP('LinkJoint',#157);
#16=MANIFOLD_SOLID_BREP('PendulumRod',#158);
#17=CYLINDRICAL_SURFACE('',#175,37.5);
#18=CYLINDRICAL_SURFACE('',#180,62.5);
#19=CYLINDRICAL_SURFACE('',#183,25.);
#20=FACE_BOUND('',#33,.T.);
#21=FACE_BOUND('',#40,.T.);
#22=FACE_OUTER_BOUND('',#32,.T.);
#23=FACE_OUTER_BOUND('',#34,.T.);
#24=FACE_OUTER_BOUND('',#35,.T.);
#25=FACE_OUTER_BOUND('',#36,.T.);
#26=FACE_OUTER_BOUND('',#37,.T.);
#27=FACE_OUTER_BOUND('',#38,.T.);
#28=FACE_OUTER_BOUND('',#39,.T.);
#29=FACE_OUTER_BOUND('',#41,.T.);
#30=FACE_OUTER_BOUND('',#42,.T.);
#31=FACE_OUTER_BOUND('',#43,.T.);
#32=EDGE_LOOP('',(#104,#105,#106,#107));
#33=EDGE_LOOP('',(#108));
#34=EDGE_LOOP('',(#109,#110,#111,#112));
#35=EDGE_LOOP('',(#113,#114,#115,#116));
#36=EDGE_LOOP('',(#117,#118,#119,#120));
#37=EDGE_LOOP('',(#121,#122,#123,#124));
#38=EDGE_LOOP('',(#125,#126,#127,#128));
#39=EDGE_LOOP('',(#129,#130,#131,#132));
#40=EDGE_LOOP('',(#133));
#41=EDGE_LOOP('',(#134,#135,#136,#137));
#42=EDGE_LOOP('',(#138));
#43=EDGE_LOOP('',(#139));
#44=LINE('',#240,#56);
#45=LINE('',#242,#57);
#46=LINE('',#243,#58);
#47=LINE('',#249,#59);
#48=LINE('',#252,#60);
#49=LINE('',#254,#61);
#50=LINE('',#255,#62);
#51=LINE('',#258,#63);
#52=LINE('',#259,#64);
#53=LINE('',#262,#65);
#54=LINE('',#263,#66);
#55=LINE('',#271,#67);
#56=VECTOR('',#194,50.);
#57=VECTOR('',#195,50.);
#58=VECTOR('',#196,50.);
#59=VECTOR('',#203,37.5);
#60=VECTOR('',#206,50.);
#61=VECTOR('',#207,50.);
#62=VECTOR('',#208,50.);
#63=VECTOR('',#211,50.);
#64=VECTOR('',#212,50.);
#65=VECTOR('',#215,50.);
#66=VECTOR('',#216,50.);
#67=VECTOR('',#227,25.);
#68=CIRCLE('',#173,62.5);
#69=CIRCLE('',#174,37.5);
#70=CIRCLE('',#176,37.5);
#71=CIRCLE('',#181,62.5);
#72=CIRCLE('',#184,25.);
#73=CIRCLE('',#185,25.);
#74=VERTEX_POINT('',#236);
#75=VERTEX_POINT('',#237);
#76=VERTEX_POINT('',#239);
#77=VERTEX_POINT('',#241);
#78=VERTEX_POINT('',#244);
#79=VERTEX_POINT('',#247);
#80=VERTEX_POINT('',#251);
#81=VERTEX_POINT('',#253);
#82=VERTEX_POINT('',#257);
#83=VERTEX_POINT('',#261);
#84=VERTEX_POINT('',#268);
#85=VERTEX_POINT('',#270);
#86=EDGE_CURVE('',#74,#75,#68,.T.);
#87=EDGE_CURVE('',#75,#76,#44,.T.);
#88=EDGE_CURVE('',#76,#77,#45,.T.);
#89=EDGE_CURVE('',#77,#74,#46,.T.);
#90=EDGE_CURVE('',#78,#78,#69,.T.);
#91=EDGE_CURVE('',#79,#79,#70,.T.);
#92=EDGE_CURVE('',#79,#78,#47,.T.);
#93=EDGE_CURVE('',#80,#75,#48,.T.);
#94=EDGE_CURVE('',#81,#80,#49,.T.);
#95=EDGE_CURVE('',#76,#81,#50,.T.);
#96=EDGE_CURVE('',#82,#81,#51,.T.);
#97=EDGE_CURVE('',#77,#82,#52,.T.);
#98=EDGE_CURVE('',#83,#82,#53,.T.);
#99=EDGE_CURVE('',#74,#83,#54,.T.);
#100=EDGE_CURVE('',#80,#83,#71,.T.);
#101=EDGE_CURVE('',#84,#84,#72,.T.);
#102=EDGE_CURVE('',#84,#85,#55,.T.);
#103=EDGE_CURVE('',#85,#85,#73,.T.);
#104=ORIENTED_EDGE('',*,*,#86,.T.);
#105=ORIENTED_EDGE('',*,*,#87,.T.);
#106=ORIENTED_EDGE('',*,*,#88,.T.);
#107=ORIENTED_EDGE('',*,*,#89,.T.);
#108=ORIENTED_EDGE('',*,*,#90,.T.);
#109=ORIENTED_EDGE('',*,*,#91,.F.);
#110=ORIENTED_EDGE('',*,*,#92,.T.);
#111=ORIENTED_EDGE('',*,*,#90,.F.);
#112=ORIENTED_EDGE('',*,*,#92,.F.);
#113=ORIENTED_EDGE('',*,*,#93,.F.);
#114=ORIENTED_EDGE('',*,*,#94,.F.);
#115=ORIENTED_EDGE('',*,*,#95,.F.);
#116=ORIENTED_EDGE('',*,*,#87,.F.);
#117=ORIENTED_EDGE('',*,*,#95,.T.);
#118=ORIENTED_EDGE('',*,*,#96,.F.);
#119=ORIENTED_EDGE('',*,*,#97,.F.);
#120=ORIENTED_EDGE('',*,*,#88,.F.);
#121=ORIENTED_EDGE('',*,*,#97,.T.);
#122=ORIENTED_EDGE('',*,*,#98,.F.);
#123=ORIENTED_EDGE('',*,*,#99,.F.);
#124=ORIENTED_EDGE('',*,*,#89,.F.);
#125=ORIENTED_EDGE('',*,*,#99,.T.);
#126=ORIENTED_EDGE('',*,*,#100,.F.);
#127=ORIENTED_EDGE('',*,*,#93,.T.);
#128=ORIENTED_EDGE('',*,*,#86,.F.);
#129=ORIENTED_EDGE('',*,*,#100,.T.);
#130=ORIENTED_EDGE('',*,*,#98,.T.);
#131=ORIENTED_EDGE('',*,*,#96,.T.);
#132=ORIENTED_EDGE('',*,*,#94,.T.);
#133=ORIENTED_EDGE('',*,*,#91,.T.);
#134=ORIENTED_EDGE('',*,*,#101,.F.);
#135=ORIENTED_EDGE('',*,*,#102,.T.);
#136=ORIENTED_EDGE('',*,*,#103,.T.);
#137=ORIENTED_EDGE('',*,*,#102,.F.);
#138=ORIENTED_EDGE('',*,*,#101,.T.);
#139=ORIENTED_EDGE('',*,*,#103,.F.);
#140=PLANE('',#172);
#141=PLANE('',#177);
#142=PLANE('',#178);
#143=PLANE('',#179);
#144=PLANE('',#182);
#145=PLANE('',#186);
#146=PLANE('',#187);
#147=ADVANCED_FACE('',(#22,#20),#140,.F.);
#148=ADVANCED_FACE('',(#23),#17,.F.);
#149=ADVANCED_FACE('',(#24),#141,.T.);
#150=ADVANCED_FACE('',(#25),#142,.T.);
#151=ADVANCED_FACE('',(#26),#143,.T.);
#152=ADVANCED_FACE('',(#27),#18,.T.);
#153=ADVANCED_FACE('',(#28,#21),#144,.T.);
#154=ADVANCED_FACE('',(#29),#19,.T.);
#155=ADVANCED_FACE('',(#30),#145,.T.);
#156=ADVANCED_FACE('',(#31),#146,.F.);
#157=CLOSED_SHELL('',(#147,#148,#149,#150,#151,#152,#153));
#158=CLOSED_SHELL('',(#154,#155,#156));
#159=DERIVED_UNIT_ELEMENT(#161,1.);
#160=DERIVED_UNIT_ELEMENT(#280,-3.);
#161=(
MASS_UNIT()
NAMED_UNIT(*)
SI_UNIT(.KILO.,.GRAM.)
);
#162=DERIVED_UNIT((#159,#160));
#163=MEASURE_REPRESENTATION_ITEM('density measure',
POSITIVE_RATIO_MEASURE(7850.),#162);
#164=PROPERTY_DEFINITION_REPRESENTATION(#169,#166);
#165=PROPERTY_DEFINITION_REPRESENTATION(#170,#167);
#166=REPRESENTATION('material name',(#168),#277);
#167=REPRESENTATION('density',(#163),#277);
#168=DESCRIPTIVE_REPRESENTATION_ITEM('Steel','Steel');
#169=PROPERTY_DEFINITION('material property','material name',#287);
#170=PROPERTY_DEFINITION('material property','density of part',#287);
#171=AXIS2_PLACEMENT_3D('',#234,#188,#189);
#172=AXIS2_PLACEMENT_3D('',#235,#190,#191);
#173=AXIS2_PLACEMENT_3D('',#238,#192,#193);
#174=AXIS2_PLACEMENT_3D('',#245,#197,#198);
#175=AXIS2_PLACEMENT_3D('',#246,#199,#200);
#176=AXIS2_PLACEMENT_3D('',#248,#201,#202);
#177=AXIS2_PLACEMENT_3D('',#250,#204,#205);
#178=AXIS2_PLACEMENT_3D('',#256,#209,#210);
#179=AXIS2_PLACEMENT_3D('',#260,#213,#214);
#180=AXIS2_PLACEMENT_3D('',#264,#217,#218);
#181=AXIS2_PLACEMENT_3D('',#265,#219,#220);
#182=AXIS2_PLACEMENT_3D('',#266,#221,#222);
#183=AXIS2_PLACEMENT_3D('',#267,#223,#224);
#184=AXIS2_PLACEMENT_3D('',#269,#225,#226);
#185=AXIS2_PLACEMENT_3D('',#272,#228,#229);
#186=AXIS2_PLACEMENT_3D('',#273,#230,#231);
#187=AXIS2_PLACEMENT_3D('',#274,#232,#233);
#188=DIRECTION('axis',(0.,0.,1.));
#189=DIRECTION('refdir',(1.,0.,0.));
#190=DIRECTION('center_axis',(0.,1.,0.));
#191=DIRECTION('ref_axis',(1.,0.,0.));
#192=DIRECTION('center_axis',(0.,-1.,0.));
#193=DIRECTION('ref_axis',(1.,0.,0.));
#194=DIRECTION('',(0.,0.,1.));
#195=DIRECTION('',(-1.,0.,0.));
#196=DIRECTION('',(5.55111512312578E-17,0.,-1.));
#197=DIRECTION('center_axis',(0.,1.,0.));
#198=DIRECTION('ref_axis',(1.,0.,0.));
#199=DIRECTION('center_axis',(0.,1.,0.));
#200=DIRECTION('ref_axis',(1.,0.,0.));
#201=DIRECTION('center_axis',(0.,-1.,0.));
#202=DIRECTION('ref_axis',(1.,0.,0.));
#203=DIRECTION('',(0.,-1.,0.));
#204=DIRECTION('center_axis',(1.,0.,0.));
#205=DIRECTION('ref_axis',(0.,0.,-1.));
#206=DIRECTION('',(0.,-1.,0.));
#207=DIRECTION('',(0.,0.,-1.));
#208=DIRECTION('',(0.,1.,0.));
#209=DIRECTION('center_axis',(0.,0.,1.));
#210=DIRECTION('ref_axis',(1.,0.,0.));
#211=DIRECTION('',(1.,0.,0.));
#212=DIRECTION('',(0.,1.,0.));
#213=DIRECTION('center_axis',(-1.,0.,-5.55111512312578E-17));
#214=DIRECTION('ref_axis',(-5.55111512312578E-17,0.,1.));
#215=DIRECTION('',(-5.55111512312578E-17,0.,1.));
#216=DIRECTION('',(0.,1.,0.));
#217=DIRECTION('center_axis',(0.,1.,0.));
#218=DIRECTION('ref_axis',(1.,0.,0.));
#219=DIRECTION('center_axis',(0.,1.,0.));
#220=DIRECTION('ref_axis',(1.,0.,0.));
#221=DIRECTION('center_axis',(0.,1.,0.));
#222=DIRECTION('ref_axis',(1.,0.,0.));
#223=DIRECTION('center_axis',(0.,0.,1.));
#224=DIRECTION('ref_axis',(-1.,0.,0.));
#225=DIRECTION('center_axis',(0.,0.,1.));
#226=DIRECTION('ref_axis',(-1.,0.,0.));
#227=DIRECTION('',(0.,0.,-1.));
#228=DIRECTION('center_axis',(0.,0.,1.));
#229=DIRECTION('ref_axis',(-1.,0.,0.));
#230=DIRECTION('center_axis',(0.,0.,1.));
#231=DIRECTION('ref_axis',(-1.,0.,0.));
#232=DIRECTION('center_axis',(0.,0.,1.));
#233=DIRECTION('ref_axis',(-1.,0.,0.));
#234=CARTESIAN_POINT('',(0.,0.,0.));
#235=CARTESIAN_POINT('Origin',(30.,-5.,68.75));
#236=CARTESIAN_POINT('',(-32.5,-5.,-3.67394039744206E-15));
#237=CARTESIAN_POINT('',(92.5,-5.,-3.14536387292486E-13));
#238=CARTESIAN_POINT('Origin',(30.,-5.,-3.67394039744206E-15));
#239=CARTESIAN_POINT('',(92.5,-5.,200.));
#240=CARTESIAN_POINT('',(92.5,-5.,-3.14536387292486E-13));
#241=CARTESIAN_POINT('',(-32.5,-5.,200.));
#242=CARTESIAN_POINT('',(92.5,-5.,200.));
#243=CARTESIAN_POINT('',(-32.5,-5.,200.));
#244=CARTESIAN_POINT('',(-7.5,-5.,9.18485099360515E-16));
#245=CARTESIAN_POINT('Origin',(30.,-5.,-3.67394039744206E-15));
#246=CARTESIAN_POINT('Origin',(30.,20.,-3.67394039744206E-15));
#247=CARTESIAN_POINT('',(-7.5,45.,9.18485099360515E-16));
#248=CARTESIAN_POINT('Origin',(30.,45.,-3.67394039744206E-15));
#249=CARTESIAN_POINT('',(-7.5,20.,9.18485099360516E-16));
#250=CARTESIAN_POINT('Origin',(92.5,20.,200.));
#251=CARTESIAN_POINT('',(92.5,45.,-3.14536387292486E-13));
#252=CARTESIAN_POINT('',(92.5,20.,-3.14536387292486E-13));
#253=CARTESIAN_POINT('',(92.5,45.,200.));
#254=CARTESIAN_POINT('',(92.5,45.,-3.14536387292486E-13));
#255=CARTESIAN_POINT('',(92.5,20.,200.));
#256=CARTESIAN_POINT('Origin',(-32.5,20.,200.));
#257=CARTESIAN_POINT('',(-32.5,45.,200.));
#258=CARTESIAN_POINT('',(92.5,45.,200.));
#259=CARTESIAN_POINT('',(-32.5,20.,200.));
#260=CARTESIAN_POINT('Origin',(-32.5,20.,-3.67394039744206E-15));
#261=CARTESIAN_POINT('',(-32.5,45.,-3.67394039744206E-15));
#262=CARTESIAN_POINT('',(-32.5,45.,200.));
#263=CARTESIAN_POINT('',(-32.5,20.,-3.67394039744206E-15));
#264=CARTESIAN_POINT('Origin',(30.,20.,-3.67394039744206E-15));
#265=CARTESIAN_POINT('Origin',(30.,45.,-3.67394039744206E-15));
#266=CARTESIAN_POINT('Origin',(30.,45.,68.75));
#267=CARTESIAN_POINT('Origin',(30.,20.,200.));
#268=CARTESIAN_POINT('',(55.,20.,950.));
#269=CARTESIAN_POINT('Origin',(30.,20.,950.));
#270=CARTESIAN_POINT('',(55.,20.,200.));
#271=CARTESIAN_POINT('',(55.,20.,200.));
#272=CARTESIAN_POINT('Origin',(30.,20.,200.));
#273=CARTESIAN_POINT('Origin',(30.,20.,950.));
#274=CARTESIAN_POINT('Origin',(30.,20.,200.));
#275=UNCERTAINTY_MEASURE_WITH_UNIT(LENGTH_MEASURE(0.01),#279,
'DISTANCE_ACCURACY_VALUE',
'Maximum model space distance between geometric entities at asserted c
onnectivities');
#276=UNCERTAINTY_MEASURE_WITH_UNIT(LENGTH_MEASURE(0.01),#279,
'DISTANCE_ACCURACY_VALUE',
'Maximum model space distance between geometric entities at asserted c
onnectivities');
#277=(
GEOMETRIC_REPRESENTATION_CONTEXT(3)
GLOBAL_UNCERTAINTY_ASSIGNED_CONTEXT((#275))
GLOBAL_UNIT_ASSIGNED_CONTEXT((#279,#281,#282))
REPRESENTATION_CONTEXT('','3D')
);
#278=(
GEOMETRIC_REPRESENTATION_CONTEXT(3)
GLOBAL_UNCERTAINTY_ASSIGNED_CONTEXT((#276))
GLOBAL_UNIT_ASSIGNED_CONTEXT((#279,#281,#282))
REPRESENTATION_CONTEXT('','3D')
);
#279=(
LENGTH_UNIT()
NAMED_UNIT(*)
SI_UNIT(.MILLI.,.METRE.)
);
#280=(
LENGTH_UNIT()
NAMED_UNIT(*)
SI_UNIT($,.METRE.)
);
#281=(
NAMED_UNIT(*)
PLANE_ANGLE_UNIT()
SI_UNIT($,.RADIAN.)
);
#282=(
NAMED_UNIT(*)
SI_UNIT($,.STERADIAN.)
SOLID_ANGLE_UNIT()
);
#283=SHAPE_DEFINITION_REPRESENTATION(#284,#285);
#284=PRODUCT_DEFINITION_SHAPE('',$,#287);
#285=SHAPE_REPRESENTATION('',(#171),#277);
#286=PRODUCT_DEFINITION_CONTEXT('part definition',#291,'design');
#287=PRODUCT_DEFINITION('PendulumRod','PendulumRod v1',#288,#286);
#288=PRODUCT_DEFINITION_FORMATION('',$,#293);
#289=PRODUCT_RELATED_PRODUCT_CATEGORY('PendulumRod v1','PendulumRod v1',
(#293));
#290=APPLICATION_PROTOCOL_DEFINITION('international standard',
'automotive_design',2009,#291);
#291=APPLICATION_CONTEXT(
'Core Data for Automotive Mechanical Design Process');
#292=PRODUCT_CONTEXT('part definition',#291,'mechanical');
#293=PRODUCT('PendulumRod','PendulumRod v1',$,(#292));
#294=PRESENTATION_STYLE_ASSIGNMENT((#297));
#295=PRESENTATION_STYLE_ASSIGNMENT((#298));
#296=PRESENTATION_STYLE_ASSIGNMENT((#299));
#297=SURFACE_STYLE_USAGE(.BOTH.,#300);
#298=SURFACE_STYLE_USAGE(.BOTH.,#301);
#299=SURFACE_STYLE_USAGE(.BOTH.,#302);
#300=SURFACE_SIDE_STYLE('',(#303));
#301=SURFACE_SIDE_STYLE('',(#304));
#302=SURFACE_SIDE_STYLE('',(#305));
#303=SURFACE_STYLE_FILL_AREA(#306);
#304=SURFACE_STYLE_FILL_AREA(#307);
#305=SURFACE_STYLE_FILL_AREA(#308);
#306=FILL_AREA_STYLE('Steel - Satin',(#309));
#307=FILL_AREA_STYLE('Paint - Metallic (Silver)',(#310));
#308=FILL_AREA_STYLE(
'PA 11 - Nylon- HP 11-30 (with EOS P 396 3D Printer)',(#311));
#309=FILL_AREA_STYLE_COLOUR('Steel - Satin',#312);
#310=FILL_AREA_STYLE_COLOUR('Paint - Metallic (Silver)',#313);
#311=FILL_AREA_STYLE_COLOUR(
'PA 11 - Nylon- HP 11-30 (with EOS P 396 3D Printer)',#314);
#312=COLOUR_RGB('Steel - Satin',0.627450980392157,0.627450980392157,0.627450980392157);
#313=COLOUR_RGB('Paint - Metallic (Silver)',0.984313725490196,0.980392156862745,
0.96078431372549);
#314=COLOUR_RGB('PA 11 - Nylon- HP 11-30 (with EOS P 396 3D Printer)',0.247058823529412,
0.247058823529412,0.247058823529412);
ENDSEC;
END-ISO-10303-21;
